<svg width="44" height="44" viewBox="0 0 44 44" fill="none" xmlns="http://www.w3.org/2000/svg">
<g id="fa:align-justify">
<path id="Vector" d="M38.125 31.6009V33.9317C38.125 34.2473 38.011 34.5205 37.7831 34.7511C37.5551 34.9818 37.2852 35.0971 36.9732 35.0971H7.02679C6.71484 35.0971 6.44489 34.9818 6.21694 34.7511C5.98898 34.5205 5.875 34.2473 5.875 33.9317V31.6009C5.875 31.2853 5.98898 31.0121 6.21694 30.7815C6.44489 30.5508 6.71484 30.4355 7.02679 30.4355H36.9732C37.2852 30.4355 37.5551 30.5508 37.7831 30.7815C38.011 31.0121 38.125 31.2853 38.125 31.6009ZM38.125 24.6085V26.9393C38.125 27.2549 38.011 27.5281 37.7831 27.7587C37.5551 27.9894 37.2852 28.1047 36.9732 28.1047H7.02679C6.71484 28.1047 6.44489 27.9894 6.21694 27.7587C5.98898 27.5281 5.875 27.2549 5.875 26.9393V24.6085C5.875 24.2929 5.98898 24.0197 6.21694 23.7891C6.44489 23.5584 6.71484 23.4431 7.02679 23.4431H36.9732C37.2852 23.4431 37.5551 23.5584 37.7831 23.7891C38.011 24.0197 38.125 24.2929 38.125 24.6085ZM38.125 17.6161V19.9469C38.125 20.2626 38.011 20.5357 37.7831 20.7663C37.5551 20.997 37.2852 21.1123 36.9732 21.1123H7.02679C6.71484 21.1123 6.44489 20.997 6.21694 20.7663C5.98898 20.5357 5.875 20.2626 5.875 19.9469V17.6161C5.875 17.3005 5.98898 17.0274 6.21694 16.7967C6.44489 16.5661 6.71484 16.4507 7.02679 16.4507H36.9732C37.2852 16.4507 37.5551 16.5661 37.7831 16.7967C38.011 17.0274 38.125 17.3005 38.125 17.6161ZM38.125 10.6237V12.9545C38.125 13.2702 38.011 13.5433 37.7831 13.774C37.5551 14.0046 37.2852 14.1199 36.9732 14.1199H7.02679C6.71484 14.1199 6.44489 14.0046 6.21694 13.774C5.98898 13.5433 5.875 13.2702 5.875 12.9545V10.6237C5.875 10.3081 5.98898 10.035 6.21694 9.80432C6.44489 9.57367 6.71484 9.45834 7.02679 9.45834H36.9732C37.2852 9.45834 37.5551 9.57367 37.7831 9.80432C38.011 10.035 38.125 10.3081 38.125 10.6237Z" fill="#3A6B88"/>
</g>
</svg>
