<svg width="44" height="44" viewBox="0 0 44 44" fill="none" xmlns="http://www.w3.org/2000/svg">
<g id="fa:image">
<path id="Vector" d="M15.4305 15.0722C15.4305 16.1671 15.0473 17.0978 14.2809 17.8642C13.5144 18.6307 12.5838 19.0139 11.4889 19.0139C10.3939 19.0139 9.46327 18.6307 8.69684 17.8642C7.9304 17.0978 7.54718 16.1671 7.54718 15.0722C7.54718 13.9773 7.9304 13.0466 8.69684 12.2802C9.46327 11.5138 10.3939 11.1306 11.4889 11.1306C12.5838 11.1306 13.5144 11.5138 14.2809 12.2802C15.0473 13.0466 15.4305 13.9773 15.4305 15.0722ZM36.4528 22.9556V32.1528H7.54718V28.2111L14.1166 21.6417L17.4014 24.9264L27.9125 14.4153L36.4528 22.9556ZM38.4236 8.50278H5.57635C5.39843 8.50278 5.24446 8.56779 5.11444 8.69781C4.98441 8.82783 4.9194 8.9818 4.9194 9.15972V34.1236C4.9194 34.3015 4.98441 34.4555 5.11444 34.5855C5.24446 34.7155 5.39843 34.7806 5.57635 34.7806H38.4236C38.6015 34.7806 38.7555 34.7155 38.8855 34.5855C39.0155 34.4555 39.0805 34.3015 39.0805 34.1236V9.15972C39.0805 8.9818 39.0155 8.82783 38.8855 8.69781C38.7555 8.56779 38.6015 8.50278 38.4236 8.50278ZM41.7083 9.15972V34.1236C41.7083 35.0269 41.3867 35.8002 40.7434 36.4434C40.1002 37.0867 39.3269 37.4083 38.4236 37.4083H5.57635C4.67305 37.4083 3.89977 37.0867 3.25651 36.4434C2.61326 35.8002 2.29163 35.0269 2.29163 34.1236V9.15972C2.29163 8.25642 2.61326 7.48315 3.25651 6.83989C3.89977 6.19663 4.67305 5.875 5.57635 5.875H38.4236C39.3269 5.875 40.1002 6.19663 40.7434 6.83989C41.3867 7.48315 41.7083 8.25642 41.7083 9.15972Z" fill="#3A6B88"/>
</g>
</svg>
