<svg width="44" height="44" viewBox="0 0 44 44" fill="none" xmlns="http://www.w3.org/2000/svg">
<path d="M15.109 34.5417V30.407C15.109 30.2061 15.0444 30.041 14.9152 29.9118C14.786 29.7825 14.6209 29.7179 14.4199 29.7179H7.52889C7.3279 29.7179 7.1628 29.7825 7.03359 29.9118C6.90439 30.041 6.83978 30.2061 6.83978 30.407V34.5417C6.83978 34.7426 6.90439 34.9077 7.03359 35.037C7.1628 35.1662 7.3279 35.2308 7.52889 35.2308H14.4199C14.6209 35.2308 14.786 35.1662 14.9152 35.037C15.0444 34.9077 15.109 34.7426 15.109 34.5417ZM15.109 26.2724V22.1378C15.109 21.9368 15.0444 21.7717 14.9152 21.6425C14.786 21.5133 14.6209 21.4487 14.4199 21.4487H7.52889C7.3279 21.4487 7.1628 21.5133 7.03359 21.6425C6.90439 21.7717 6.83978 21.9368 6.83978 22.1378V26.2724C6.83978 26.4734 6.90439 26.6385 7.03359 26.7677C7.1628 26.8969 7.3279 26.9615 7.52889 26.9615H14.4199C14.6209 26.9615 14.786 26.8969 14.9152 26.7677C15.0444 26.6385 15.109 26.4734 15.109 26.2724ZM26.1347 34.5417V30.407C26.1347 30.2061 26.0701 30.041 25.9408 29.9118C25.8116 29.7825 25.6465 29.7179 25.4456 29.7179H18.5545C18.3535 29.7179 18.1884 29.7825 18.0592 29.9118C17.93 30.041 17.8654 30.2061 17.8654 30.407V34.5417C17.8654 34.7426 17.93 34.9077 18.0592 35.037C18.1884 35.1662 18.3535 35.2308 18.5545 35.2308H25.4456C25.6465 35.2308 25.8116 35.1662 25.9408 35.037C26.0701 34.9077 26.1347 34.7426 26.1347 34.5417ZM15.109 18.0032V13.8686C15.109 13.6676 15.0444 13.5025 14.9152 13.3733C14.786 13.2441 14.6209 13.1795 14.4199 13.1795H7.52889C7.3279 13.1795 7.1628 13.2441 7.03359 13.3733C6.90439 13.5025 6.83978 13.6676 6.83978 13.8686V18.0032C6.83978 18.2042 6.90439 18.3693 7.03359 18.4985C7.1628 18.6277 7.3279 18.6923 7.52889 18.6923H14.4199C14.6209 18.6923 14.786 18.6277 14.9152 18.4985C15.0444 18.3693 15.109 18.2042 15.109 18.0032ZM26.1347 26.2724V22.1378C26.1347 21.9368 26.0701 21.7717 25.9408 21.6425C25.8116 21.5133 25.6465 21.4487 25.4456 21.4487H18.5545C18.3535 21.4487 18.1884 21.5133 18.0592 21.6425C17.93 21.7717 17.8654 21.9368 17.8654 22.1378V26.2724C17.8654 26.4734 17.93 26.6385 18.0592 26.7677C18.1884 26.8969 18.3535 26.9615 18.5545 26.9615H25.4456C25.6465 26.9615 25.8116 26.8969 25.9408 26.7677C26.0701 26.6385 26.1347 26.4734 26.1347 26.2724ZM37.1603 34.5417V30.407C37.1603 30.2061 37.0957 30.041 36.9665 29.9118C36.8373 29.7825 36.6722 29.7179 36.4712 29.7179H29.5802C29.3792 29.7179 29.2141 29.7825 29.0849 29.9118C28.9557 30.041 28.8911 30.2061 28.8911 30.407V34.5417C28.8911 34.7426 28.9557 34.9077 29.0849 35.037C29.2141 35.1662 29.3792 35.2308 29.5802 35.2308H36.4712C36.6722 35.2308 36.8373 35.1662 36.9665 35.037C37.0957 34.9077 37.1603 34.7426 37.1603 34.5417ZM26.1347 18.0032V13.8686C26.1347 13.6676 26.0701 13.5025 25.9408 13.3733C25.8116 13.2441 25.6465 13.1795 25.4456 13.1795H18.5545C18.3535 13.1795 18.1884 13.2441 18.0592 13.3733C17.93 13.5025 17.8654 13.6676 17.8654 13.8686V18.0032C17.8654 18.2042 17.93 18.3693 18.0592 18.4985C18.1884 18.6277 18.3535 18.6923 18.5545 18.6923H25.4456C25.6465 18.6923 25.8116 18.6277 25.9408 18.4985C26.0701 18.3693 26.1347 18.2042 26.1347 18.0032ZM37.1603 26.2724V22.1378C37.1603 21.9368 37.0957 21.7717 36.9665 21.6425C36.8373 21.5133 36.6722 21.4487 36.4712 21.4487H29.5802C29.3792 21.4487 29.2141 21.5133 29.0849 21.6425C28.9557 21.7717 28.8911 21.9368 28.8911 22.1378V26.2724C28.8911 26.4734 28.9557 26.6385 29.0849 26.7677C29.2141 26.8969 29.3792 26.9615 29.5802 26.9615H36.4712C36.6722 26.9615 36.8373 26.8969 36.9665 26.7677C37.0957 26.6385 37.1603 26.4734 37.1603 26.2724ZM37.1603 18.0032V13.8686C37.1603 13.6676 37.0957 13.5025 36.9665 13.3733C36.8373 13.2441 36.6722 13.1795 36.4712 13.1795H29.5802C29.3792 13.1795 29.2141 13.2441 29.0849 13.3733C28.9557 13.5025 28.8911 13.6676 28.8911 13.8686V18.0032C28.8911 18.2042 28.9557 18.3693 29.0849 18.4985C29.2141 18.6277 29.3792 18.6923 29.5802 18.6923H36.4712C36.6722 18.6923 36.8373 18.6277 36.9665 18.4985C37.0957 18.3693 37.1603 18.2042 37.1603 18.0032ZM39.9167 11.1122V34.5417C39.9167 35.4892 39.5793 36.3003 38.9046 36.9751C38.2298 37.6498 37.4187 37.9872 36.4712 37.9872H7.52889C6.58137 37.9872 5.77024 37.6498 5.09549 36.9751C4.42075 36.3003 4.08337 35.4892 4.08337 34.5417V11.1122C4.08337 10.1647 4.42075 9.35352 5.09549 8.67878C5.77024 8.00403 6.58137 7.66666 7.52889 7.66666H36.4712C37.4187 7.66666 38.2298 8.00403 38.9046 8.67878C39.5793 9.35352 39.9167 10.1647 39.9167 11.1122Z" fill="#3A6B88"/>
</svg>
